<?xml version="1.0" standalone="no"?>
<!DOCTYPE svg PUBLIC "-//W3C//DTD SVG 20010904//EN"
 "http://www.w3.org/TR/2001/REC-SVG-20010904/DTD/svg10.dtd">
<svg version="1.0" xmlns="http://www.w3.org/2000/svg"
 width="61.000000pt" height="73.000000pt" viewBox="0 0 61.000000 73.000000"
 preserveAspectRatio="xMidYMid meet">
<metadata>
Created by potrace 1.10, written by Peter Selinger 2001-2011
</metadata>
<g transform="translate(0.000000,73.000000) scale(0.100000,-0.100000)"
fill="#ffffff" stroke="none">
<path d="M12 718 c-17 -17 -17 -599 0 -616 8 -8 57 -12 155 -12 122 0 142 2
137 15 -5 12 -30 15 -140 15 l-134 0 0 290 0 290 140 0 140 0 0 -78 c0 -47 5
-83 12 -90 8 -8 45 -12 100 -12 l88 0 0 -110 c0 -91 3 -110 15 -110 13 0 15
20 15 123 0 84 -4 128 -12 139 -18 21 -168 143 -195 157 -30 16 -305 15 -321
-1z m408 -108 l65 -59 -72 -1 -73 0 0 60 c0 33 3 60 8 60 4 -1 36 -27 72 -60z"/>
<path d="M93 598 c2 -9 26 -13 72 -13 46 0 70 4 73 13 3 9 -16 12 -73 12 -57
0 -76 -3 -72 -12z"/>
<path d="M90 505 c0 -12 19 -15 110 -15 91 0 110 3 110 15 0 12 -19 15 -110
15 -91 0 -110 -3 -110 -15z"/>
<path d="M90 410 c0 -6 67 -10 180 -10 113 0 180 4 180 10 0 6 -67 10 -180 10
-113 0 -180 -4 -180 -10z"/>
<path d="M90 315 c0 -13 23 -15 149 -15 152 0 211 6 211 21 0 5 -81 9 -180 9
-153 0 -180 -2 -180 -15z"/>
<path d="M392 284 c-131 -67 -94 -265 52 -281 115 -13 200 106 151 211 -35 73
-131 106 -203 70z m78 -74 l0 -50 45 0 c25 0 45 -4 45 -10 0 -5 -20 -10 -45
-10 l-45 0 0 -45 c0 -25 -4 -45 -10 -45 -5 0 -10 20 -10 45 l0 45 -45 0 c-25
0 -45 5 -45 10 0 6 20 10 45 10 l45 0 0 50 c0 28 5 50 10 50 6 0 10 -22 10
-50z"/>
<path d="M90 220 c0 -6 33 -10 80 -10 47 0 80 4 80 10 0 6 -33 10 -80 10 -47
0 -80 -4 -80 -10z"/>
</g>
</svg>
