<?xml version="1.0" standalone="no"?>
<!DOCTYPE svg PUBLIC "-//W3C//DTD SVG 20010904//EN"
 "http://www.w3.org/TR/2001/REC-SVG-20010904/DTD/svg10.dtd">
<svg version="1.0" xmlns="http://www.w3.org/2000/svg"
 width="192.000000pt" height="192.000000pt" viewBox="0 0 192.000000 192.000000"
 preserveAspectRatio="xMidYMid meet">
<metadata>
Created by potrace 1.10, written by Peter Selinger 2001-2011
</metadata>
<g transform="translate(0.000000,192.000000) scale(0.100000,-0.100000)"
fill="#ffffff" stroke="none">
<path d="M830 1905 c0 -9 -14 -17 -40 -21 -29 -5 -54 -20 -93 -58 -111 -105
-150 -221 -115 -338 9 -31 9 -44 0 -59 -22 -34 -10 -128 22 -178 5 -7 12 -27
17 -45 16 -64 35 -103 79 -162 99 -135 242 -189 352 -132 65 33 158 133 196
210 17 37 32 74 32 82 0 7 12 40 26 72 21 47 24 67 19 104 -3 25 -5 65 -4 90
5 113 2 187 -9 210 -30 62 -52 88 -108 125 -66 44 -106 62 -176 77 -29 7 -48
16 -48 24 0 11 -18 14 -75 14 -60 0 -75 -3 -75 -15z"/>
<path d="M615 911 c-22 -10 -47 -21 -55 -25 -8 -3 -22 -10 -30 -15 -8 -5 -35
-17 -60 -26 -68 -26 -123 -53 -146 -72 -27 -23 -79 -119 -103 -192 -49 -146
-69 -434 -33 -476 35 -42 205 -80 432 -96 210 -15 664 -9 682 9 10 10 3 22
-35 60 -36 36 -47 55 -47 79 0 17 -7 36 -15 43 -12 10 -15 37 -15 120 0 83 3
110 15 120 8 7 15 27 15 44 0 26 13 44 68 99 54 54 74 67 99 67 17 0 36 7 43
15 9 11 34 15 101 15 48 0 90 4 94 9 8 13 -26 66 -56 88 -34 26 -85 53 -98 53
-10 0 -47 16 -188 82 -43 20 -82 17 -84 -5 -1 -7 -2 -70 -3 -142 -1 -98 -5
-139 -17 -165 -18 -37 -40 -94 -95 -242 -8 -21 -20 -55 -28 -75 -76 -207 -84
-221 -120 -207 -15 6 -25 27 -91 204 -8 22 -22 59 -31 83 -9 23 -22 59 -30 80
-35 93 -47 124 -63 157 -12 27 -16 67 -17 173 0 109 -3 140 -15 148 -20 13
-29 11 -74 -10z"/>
<path d="M867 823 c-3 -5 10 -33 29 -63 18 -30 34 -59 34 -65 0 -5 -16 -26
-36 -46 l-36 -37 17 -88 c9 -49 21 -114 26 -144 6 -30 14 -88 19 -129 15 -123
45 -123 60 0 5 41 13 99 19 129 5 30 17 95 26 144 l17 88 -38 39 -38 39 32 59
c18 32 32 61 32 64 0 2 -26 4 -57 3 -32 0 -68 3 -80 7 -12 4 -24 4 -26 0z"/>
<path d="M1460 635 c-7 -8 -27 -15 -44 -15 -26 0 -44 -13 -99 -68 -54 -54 -67
-74 -67 -99 0 -17 -7 -36 -15 -43 -11 -9 -15 -33 -15 -90 0 -57 4 -81 15 -90
8 -7 15 -27 15 -44 0 -25 14 -45 66 -99 56 -56 71 -67 99 -67 19 0 37 -5 40
-10 8 -13 182 -13 190 0 3 6 21 10 38 10 27 0 44 12 100 68 54 54 67 74 67 99
0 17 7 36 15 43 11 9 15 33 15 90 0 57 -4 81 -15 90 -8 7 -15 27 -15 44 0 26
-13 44 -68 99 -54 54 -74 67 -99 67 -17 0 -36 7 -43 15 -9 11 -33 15 -90 15
-57 0 -81 -4 -90 -15z m265 -315 l0 -235 -175 0 -175 0 -3 225 c-1 123 0 230
3 238 3 10 43 12 177 10 l173 -3 0 -235z"/>
<path d="M1405 517 c-3 -7 -4 -100 -3 -207 l3 -195 145 0 145 0 0 205 0 205
-143 3 c-110 2 -144 0 -147 -11z m55 -62 c0 -8 -7 -15 -15 -15 -8 0 -15 7 -15
15 0 8 7 15 15 15 8 0 15 -7 15 -15z m210 0 c0 -12 -17 -15 -90 -15 -73 0 -90
3 -90 15 0 12 17 15 90 15 73 0 90 -3 90 -15z m-210 -90 c0 -8 -7 -15 -15 -15
-8 0 -15 7 -15 15 0 8 7 15 15 15 8 0 15 -7 15 -15z m210 0 c0 -12 -17 -15
-90 -15 -73 0 -90 3 -90 15 0 12 17 15 90 15 73 0 90 -3 90 -15z m-210 -90 c0
-8 -7 -15 -15 -15 -8 0 -15 7 -15 15 0 8 7 15 15 15 8 0 15 -7 15 -15z m210 0
c0 -12 -17 -15 -90 -15 -73 0 -90 3 -90 15 0 12 17 15 90 15 73 0 90 -3 90
-15z m-210 -90 c0 -8 -7 -15 -15 -15 -8 0 -15 7 -15 15 0 8 7 15 15 15 8 0 15
-7 15 -15z m210 0 c0 -12 -17 -15 -90 -15 -73 0 -90 3 -90 15 0 12 17 15 90
15 73 0 90 -3 90 -15z"/>
</g>
</svg>
