<?xml version="1.0" standalone="no"?>
<!DOCTYPE svg PUBLIC "-//W3C//DTD SVG 20010904//EN"
 "http://www.w3.org/TR/2001/REC-SVG-20010904/DTD/svg10.dtd">
<svg version="1.0" xmlns="http://www.w3.org/2000/svg"
 width="64.000000pt" height="64.000000pt" viewBox="0 0 64.000000 64.000000"
 preserveAspectRatio="xMidYMid meet">
<metadata>
Created by potrace 1.10, written by Peter Selinger 2001-2011
</metadata>
<g transform="translate(0.000000,64.000000) scale(0.100000,-0.100000)"
fill="#000000" stroke="none">
<path d="M260 628 c-13 -7 -34 -28 -47 -46 -41 -62 -14 -204 49 -257 80 -68
174 17 183 164 4 65 -13 104 -54 126 -43 22 -102 28 -131 13z"/>
<path d="M153 283 c-44 -21 -55 -32 -70 -71 -11 -28 -18 -73 -18 -112 l0 -65
37 -12 c46 -15 253 -28 303 -19 36 7 37 8 18 28 -13 15 -18 36 -18 79 0 75 28
108 98 116 58 7 53 23 -19 57 -77 37 -84 35 -84 -21 0 -55 -61 -228 -80 -228
-19 0 -80 173 -80 228 0 56 -9 58 -87 20z"/>
<path d="M302 254 c8 -17 8 -27 0 -37 -11 -13 5 -157 18 -157 13 0 29 144 18
157 -8 10 -8 20 0 37 9 21 8 23 -18 23 -26 0 -27 -2 -18 -23z"/>
<path d="M475 211 c-40 -18 -60 -51 -60 -102 0 -40 5 -54 28 -76 23 -23 36
-28 77 -28 70 0 105 35 105 105 0 40 -5 55 -26 76 -28 28 -89 40 -124 25z
m105 -101 l0 -80 -60 0 -60 0 0 80 0 80 60 0 60 0 0 -80z"/>
<path d="M470 110 l0 -70 50 0 50 0 0 70 0 70 -50 0 -50 0 0 -70z m78 43 c-10
-2 -26 -2 -35 0 -10 3 -2 5 17 5 19 0 27 -2 18 -5z m0 -30 c-10 -2 -26 -2 -35
0 -10 3 -2 5 17 5 19 0 27 -2 18 -5z m0 -30 c-10 -2 -26 -2 -35 0 -10 3 -2 5
17 5 19 0 27 -2 18 -5z m0 -30 c-10 -2 -26 -2 -35 0 -10 3 -2 5 17 5 19 0 27
-2 18 -5z"/>
</g>
</svg>
