<?xml version="1.0" standalone="no"?>
<!DOCTYPE svg PUBLIC "-//W3C//DTD SVG 20010904//EN"
 "http://www.w3.org/TR/2001/REC-SVG-20010904/DTD/svg10.dtd">
<svg version="1.0" xmlns="http://www.w3.org/2000/svg"
 width="61.000000pt" height="73.000000pt" viewBox="0 0 61.000000 73.000000"
 preserveAspectRatio="xMidYMid meet">
<metadata>
Created by potrace 1.10, written by Peter Selinger 2001-2011
</metadata>
<g transform="translate(0.000000,73.000000) scale(0.050000,-0.050000)"
fill="#ffffff" stroke="none">
<path d="M24 1436 c-34 -34 -34 -1198 0 -1232 39 -39 598 -33 583 6 -9 25 -59
30 -279 30 l-268 0 0 580 0 580 280 0 280 0 0 -156 c0 -199 6 -204 224 -204
l176 0 0 -220 c0 -182 5 -220 30 -220 40 0 44 474 5 523 -35 43 -335 286 -389
314 -61 32 -610 31 -642 -1z m816 -216 l130 -119 -145 0 -145 -1 0 120 c0 147
-1 147 160 0z"/>
<path d="M185 1195 c6 -17 53 -25 145 -25 92 0 139 8 145 25 6 19 -31 25 -145
25 -114 0 -151 -6 -145 -25z"/>
<path d="M180 1010 c0 -25 38 -30 220 -30 182 0 220 5 220 30 0 25 -38 30
-220 30 -182 0 -220 -5 -220 -30z"/>
<path d="M180 820 c0 -13 133 -20 360 -20 227 0 360 7 360 20 0 13 -133 20
-360 20 -227 0 -360 -7 -360 -20z"/>
<path d="M180 630 c0 -32 517 -46 658 -17 148 29 37 47 -298 47 -307 0 -360
-4 -360 -30z"/>
<path d="M784 568 c-262 -134 -188 -530 105 -563 300 -34 452 364 206 539 -80
56 -225 68 -311 24z m156 -148 l0 -100 90 0 c50 0 90 -9 90 -20 0 -11 -40 -20
-90 -20 l-90 0 0 -90 c0 -49 -9 -90 -20 -90 -11 0 -20 41 -20 90 l0 90 -90 0
c-49 0 -90 9 -90 20 0 11 41 20 90 20 l90 0 0 100 c0 55 9 100 20 100 11 0 20
-45 20 -100z"/>
<path d="M180 440 c0 -12 67 -20 160 -20 93 0 160 8 160 20 0 12 -67 20 -160
20 -93 0 -160 -8 -160 -20z"/>
</g>
</svg>
