<?xml version="1.0" standalone="no"?>
<!DOCTYPE svg PUBLIC "-//W3C//DTD SVG 20010904//EN"
 "http://www.w3.org/TR/2001/REC-SVG-20010904/DTD/svg10.dtd">
<svg version="1.0" xmlns="http://www.w3.org/2000/svg"
 width="64.000000pt" height="64.000000pt" viewBox="0 0 64.000000 64.000000"
 preserveAspectRatio="xMidYMid meet">
<metadata>
Created by potrace 1.10, written by Peter Selinger 2001-2011
</metadata>
<g transform="translate(0.000000,64.000000) scale(0.100000,-0.100000)"
fill="#ffffff" stroke="none">
<path d="M206 606 c-34 -32 -36 -37 -36 -100 0 -151 95 -244 174 -171 38 36
66 107 66 172 0 47 -4 59 -28 83 -27 26 -85 50 -124 50 -9 0 -33 -15 -52 -34z"/>
<path d="M143 299 c-74 -34 -91 -64 -100 -175 l-6 -71 49 -16 c78 -26 184 -39
251 -32 l61 6 -24 36 c-50 74 -22 177 58 213 l42 19 -58 25 -58 26 -20 -25
c-31 -40 -55 -49 -83 -31 -13 9 -26 25 -30 36 -8 25 -6 25 -82 -11z"/>
<path d="M423 240 c-85 -51 -81 -179 6 -225 116 -60 239 71 171 182 -37 61
-116 81 -177 43z m35 -32 c7 -7 12 -21 12 -32 0 -11 23 -44 51 -72 28 -28 47
-54 42 -57 -5 -4 -32 16 -58 43 -28 28 -58 50 -70 50 -22 0 -45 17 -45 33 0 5
7 4 16 -3 12 -11 18 -10 31 3 13 13 14 19 3 31 -15 19 0 22 18 4z"/>
</g>
</svg>
